<?xml version="1.0" encoding="UTF-8" standalone="no"?>
<!-- Creator: CorelDRAW -->

<svg
   xmlns:dc="http://purl.org/dc/elements/1.1/"
   xmlns:cc="http://creativecommons.org/ns#"
   xmlns:rdf="http://www.w3.org/1999/02/22-rdf-syntax-ns#"
   xmlns:svg="http://www.w3.org/2000/svg"
   xmlns="http://www.w3.org/2000/svg"
   xmlns:sodipodi="http://sodipodi.sourceforge.net/DTD/sodipodi-0.dtd"
   xmlns:inkscape="http://www.inkscape.org/namespaces/inkscape"
   xml:space="preserve"
   width="2550px"
   height="3300px"
   style="shape-rendering:geometricPrecision; text-rendering:geometricPrecision; image-rendering:optimizeQuality; fill-rule:evenodd; clip-rule:evenodd"
   viewBox="0 0 2550 3300"
   id="svg5080"
   version="1.1"
   inkscape:version="0.91 r13725"
   sodipodi:docname="adbytelogo_wireframe.svg"><metadata
     id="metadata5123"><rdf:RDF><cc:Work
         rdf:about=""><dc:format>image/svg+xml</dc:format><dc:type
           rdf:resource="http://purl.org/dc/dcmitype/StillImage" /></cc:Work></rdf:RDF></metadata><sodipodi:namedview
     pagecolor="#ffffff"
     bordercolor="#666666"
     borderopacity="1"
     objecttolerance="10"
     gridtolerance="10"
     guidetolerance="10"
     inkscape:pageopacity="0"
     inkscape:pageshadow="2"
     inkscape:window-width="1215"
     inkscape:window-height="1000"
     id="namedview5121"
     showgrid="false"
     inkscape:zoom="0.20227539"
     inkscape:cx="1006.9706"
     inkscape:cy="802.89649"
     inkscape:window-x="65"
     inkscape:window-y="24"
     inkscape:window-maximized="1"
     inkscape:current-layer="svg5080" /><defs
     id="defs5082"><style
       type="text/css"
       id="style5084"><![CDATA[
    .str0 {stroke:#1F1A17;stroke-width:0.9}
    .fil3 {fill:none}
    .fil1 {fill:#0093DD}
    .fil2 {fill:#84C225}
    .fil0 {fill:#DA251D}
    .fil4 {fill:#1F1A17;fill-rule:nonzero}
   ]]></style></defs><ellipse
     style="fill:#da251d;stroke:#1f1a17;stroke-width:0.89999998"
     id="ellipse5088"
     ry="599.10901"
     rx="618.43799"
     cy="710.66498"
     cx="1705.75"
     class="fil0 str0" /><ellipse
     style="fill:#0093dd;stroke:#1f1a17;stroke-width:0.89999998"
     id="ellipse5090"
     ry="393.345"
     rx="357.116"
     cy="943.93597"
     cx="423.39401"
     class="fil1 str0" /><ellipse
     style="fill:#84c225;stroke:#1f1a17;stroke-width:0.89999998"
     id="ellipse5092"
     ry="393.345"
     rx="357.116"
     cy="2266.3501"
     cx="1611.15"
     class="fil2 str0" /><path
     style="fill:none;stroke:#1f1a17;stroke-width:0.89999998"
     inkscape:connector-curvature="0"
     id="path5094"
     d="m 318.979,567.677 c 1120.74,-427.39 1225.15,-444.476 1225.15,-444.476"
     class="fil3 str0" /><line
     style="fill:none;stroke:#1f1a17;stroke-width:0.89999998"
     id="line5096"
     y2="1334.29"
     x2="423.39401"
     y1="1312.33"
     x1="1709.75"
     class="fil3 str0" /><line
     style="fill:none;stroke:#1f1a17;stroke-width:0.89999998"
     id="line5098"
     y2="2597.8201"
     x2="1418.83"
     y1="1147.36"
     x1="117.702"
     class="fil3 str0" /><polyline
     style="fill:none;stroke:#1f1a17;stroke-width:0.89999998"
     id="polyline5100"
     points="1511.37,1888.56 182.95,2571.26 1611.15,2659.69 "
     class="fil3 str0" /><path
     style="fill:none;stroke:#1f1a17;stroke-width:0.89999998"
     inkscape:connector-curvature="0"
     id="path5102"
     d="m 1709.75,1312.33 c -341.496,0 -618.438,-268.286 -618.438,-599.109 0,-330.822 260.158,-585.445 618.438,-599.108 358.28,-13.663 624.033,263.732 618.438,599.108 -5.5949,335.376 -276.943,599.109 -618.438,599.109 z M 423.39,550.593 c 121.029,0 228.017,66.352 292.609,167.824 l 537.36,601.704 547.215,612.738 c 100.709,69.5598 167.683,192.926 167.683,333.488 0,217.201 -159.92,393.345 -357.116,393.345 -13.7209,0 -27.2598,-0.8528 -40.585,-2.5134 l -1387.61,-85.9217 829.602,-426.341 -777.523,-866.757 c -47.8382,-32.7839 -88.1256,-77.6799 -117.327,-130.793 -32.6362,-59.3598 -51.4228,-128.982 -51.4228,-203.42799 0,-217.201 159.92,-393.345 357.116,-393.345 z"
     class="fil3 str0" /><path
     style="fill:#b3b3b3;fill-rule:nonzero"
     inkscape:connector-curvature="0"
     id="path5104"
     d="m 96.8327,2905.32 -13.089,-98.6787 -13.8165,98.6787 26.9055,0 z m 70.4126,114.653 -54.2941,0 -6.36378,-45.861 -45.6886,0 -6.3626,45.861 -54.5362,0 47.2642,-321.03 72.7169,0 47.2642,321.03 z"
     class="fil4" /><path
     style="fill:#b3b3b3;fill-rule:nonzero"
     inkscape:connector-curvature="0"
     d="m 267.228,2987.87 0,-183.446 -36.3567,0 0,183.446 36.3567,0 z m 54.5374,22.9311 -36.3579,45.861 -109.074,0 0,-321.031 109.074,0 36.3579,45.8622 0,229.307 z"
     class="fil4"
     id="1" /><polygon
     style="fill:#b3b3b3;fill-rule:nonzero"
     points="378.119,3075 330.855,2753.97 385.149,2753.97 414.357,2967.38 443.564,2753.97 498.1,2753.97 450.836,3075 "
     class="fil4"
     id="12" /><path
     style="fill:#b3b3b3;fill-rule:nonzero"
     inkscape:connector-curvature="0"
     d="m 584.027,2905.32 -13.089,-98.6787 -13.8165,98.6787 26.9055,0 z m 70.4126,114.653 -54.2941,0 -6.36378,-45.861 -45.6886,0 -6.3626,45.861 -54.5362,0 47.2642,-321.03 72.7169,0 47.2642,321.03 z"
     class="fil4"
     id="123" /><polygon
     style="fill:#b3b3b3;fill-rule:nonzero"
     points="718.065,2932.83 718.065,3061.24 663.528,3061.24 663.528,2740.21 718.065,2740.21 754.422,2868.63 754.422,2740.21 808.959,2740.21 808.959,3061.24 754.422,3061.24 "
     class="fil4"
     id="1234" /><polygon
     style="fill:#b3b3b3;fill-rule:nonzero"
     points="874.403,3070.42 838.045,3024.56 838.045,2795.25 874.403,2749.39 947.119,2749.39 983.477,2795.25 983.477,2864.04 928.939,2864.04 928.939,2818.18 892.583,2818.18 892.583,3001.63 928.939,3001.63 928.939,2955.76 983.477,2955.76 983.477,3024.56 947.119,3070.42 "
     class="fil4"
     id="12345" /><polygon
     style="fill:#b3b3b3;fill-rule:nonzero"
     points="1012.56,2744.8 1139.82,2744.8 1139.82,2813.59 1067.1,2813.59 1067.1,2870.92 1139.82,2870.92 1139.82,2939.71 1067.1,2939.71 1067.1,2997.04 1139.82,2997.04 1139.82,3065.83 1012.56,3065.83 "
     class="fil4"
     id="123456" /><path
     style="fill:#b3b3b3;fill-rule:nonzero"
     inkscape:connector-curvature="0"
     d="m 1259.79,2987.87 0,-183.446 -36.3567,0 0,183.446 36.3567,0 z m 54.5374,22.9311 -36.3579,45.861 -109.074,0 0,-321.031 109.074,0 36.3579,45.8622 0,229.307 z"
     class="fil4"
     id="1234567" /><path
     style="fill:#b3b3b3;fill-rule:nonzero"
     inkscape:connector-curvature="0"
     d="m 1434.31,2969.52 0,-57.3272 -36.3567,0 0,57.3272 36.3567,0 z m 0,-126.119 0,-57.3272 -36.3567,0 0,57.3272 36.3567,0 z m 58.1728,144.464 -39.9933,50.4472 -109.074,0 0,-321.031 109.074,0 36.3579,45.8622 0,82.5508 -25.4504,32.1024 29.0858,36.6898 0,73.3783 z"
     class="fil4"
     id="12345678" /><polygon
     style="fill:#b3b3b3;fill-rule:nonzero"
     points="1612.47,3061.24 1557.93,3061.24 1557.93,2909.9 1503.39,2740.21 1557.69,2740.21 1585.08,2829.11 1612.47,2740.21 1667,2740.21 1612.47,2909.9 "
     class="fil4"
     id="123456789" /><polygon
     style="fill:#b3b3b3;fill-rule:nonzero"
     points="1783.35,3065.83 1728.81,3065.83 1728.81,2813.59 1674.27,2813.59 1674.27,2744.8 1837.88,2744.8 1837.88,2813.59 1783.35,2813.59 "
     class="fil4"
     id="12345678910" /><polygon
     style="fill:#b3b3b3;fill-rule:nonzero"
     points="1856.06,2744.8 1983.32,2744.8 1983.32,2813.59 1910.6,2813.59 1910.6,2870.92 1983.32,2870.92 1983.32,2939.71 1910.6,2939.71 1910.6,2997.04 1983.32,2997.04 1983.32,3065.83 1856.06,3065.83 "
     class="fil4"
     id="1234567891011" /><polygon
     style="fill:#b3b3b3;fill-rule:nonzero"
     points="2048.76,3042.9 2012.4,2997.04 2012.4,2951.18 2066.94,2951.18 2066.94,2974.11 2103.29,2974.11 2103.29,2916.78 2048.76,2916.78 2012.4,2870.92 2012.4,2767.73 2048.76,2721.87 2121.47,2721.87 2157.83,2767.73 2157.83,2813.59 2103.29,2813.59 2103.29,2790.66 2066.94,2790.66 2066.94,2847.99 2121.47,2847.99 2157.83,2893.85 2157.83,2997.04 2121.47,3042.9 "
     class="fil4"
     id="123456789101112" /><polygon
     style="fill:#b3b3b3;fill-rule:nonzero"
     points="2186.92,2974.11 2241.45,2974.11 2241.45,3042.9 2186.92,3042.9 "
     class="fil4"
     id="12345678910111213" /><polygon
     style="fill:#b3b3b3;fill-rule:nonzero"
     points="2270.54,2712.7 2325.08,2712.7 2325.08,3033.73 2270.54,3033.73 "
     class="fil4"
     id="1234567891011121314" /><polygon
     style="fill:#b3b3b3;fill-rule:nonzero"
     points="2408.7,2932.83 2408.7,3061.24 2354.16,3061.24 2354.16,2740.21 2408.7,2740.21 2445.06,2868.63 2445.06,2740.21 2499.6,2740.21 2499.6,3061.24 2445.06,3061.24 "
     class="fil4"
     id="123456789101112131415" /></svg>