<?xml version="1.0" encoding="UTF-8" standalone="no"?>
<!-- Creator: CorelDRAW -->

<svg
   xmlns:dc="http://purl.org/dc/elements/1.1/"
   xmlns:cc="http://creativecommons.org/ns#"
   xmlns:rdf="http://www.w3.org/1999/02/22-rdf-syntax-ns#"
   xmlns:svg="http://www.w3.org/2000/svg"
   xmlns="http://www.w3.org/2000/svg"
   xmlns:sodipodi="http://sodipodi.sourceforge.net/DTD/sodipodi-0.dtd"
   xmlns:inkscape="http://www.inkscape.org/namespaces/inkscape"
   xml:space="preserve"
   width="2550px"
   height="3300px"
   style="shape-rendering:geometricPrecision; text-rendering:geometricPrecision; image-rendering:optimizeQuality; fill-rule:evenodd; clip-rule:evenodd"
   viewBox="0 0 2550 3300"
   id="svg2"
   version="1.1"
   inkscape:version="0.91 r13725"
   sodipodi:docname="logo_wireframe.svg"><metadata
     id="metadata44"><rdf:RDF><cc:Work
         rdf:about=""><dc:format>image/svg+xml</dc:format><dc:type
           rdf:resource="http://purl.org/dc/dcmitype/StillImage" /></cc:Work></rdf:RDF></metadata><sodipodi:namedview
     pagecolor="#ffffff"
     bordercolor="#666666"
     borderopacity="1"
     objecttolerance="10"
     gridtolerance="10"
     guidetolerance="10"
     inkscape:pageopacity="0"
     inkscape:pageshadow="2"
     inkscape:window-width="1215"
     inkscape:window-height="1000"
     id="namedview42"
     showgrid="false"
     inkscape:zoom="0.28606061"
     inkscape:cx="1372.892"
     inkscape:cy="-37.09796"
     inkscape:window-x="65"
     inkscape:window-y="24"
     inkscape:window-maximized="1"
     inkscape:current-layer="svg2" /><defs
     id="defs4"><style
       type="text/css"
       id="style6"><![CDATA[
    .str0 {stroke:#1F1A17;stroke-width:0.9}
    .fil3 {fill:none}
    .fil1 {fill:#0093DD}
    .fil2 {fill:#84C225}
    .fil0 {fill:#DA251D}
    .fil4 {fill:#1F1A17;fill-rule:nonzero}
   ]]></style></defs><ellipse
     style="fill:#da251d;stroke:#1f1a17;stroke-width:0.89999998"
     id="ellipse10"
     ry="599.10901"
     rx="618.43799"
     cy="710.66498"
     cx="1705.75"
     class="fil0 str0" /><ellipse
     style="fill:#0093dd;stroke:#1f1a17;stroke-width:0.89999998"
     id="ellipse12"
     ry="393.345"
     rx="357.116"
     cy="943.93597"
     cx="423.39401"
     class="fil1 str0" /><ellipse
     style="fill:#84c225;stroke:#1f1a17;stroke-width:0.89999998"
     id="ellipse14"
     ry="393.345"
     rx="357.116"
     cy="2266.3501"
     cx="1611.15"
     class="fil2 str0" /><path
     style="fill:none;stroke:#1f1a17;stroke-width:0.89999998"
     inkscape:connector-curvature="0"
     id="path16"
     d="m 318.979,567.677 c 1120.74,-427.39 1225.15,-444.476 1225.15,-444.476"
     class="fil3 str0" /><line
     style="fill:none;stroke:#1f1a17;stroke-width:0.89999998"
     id="line18"
     y2="1334.29"
     x2="423.39401"
     y1="1312.33"
     x1="1709.75"
     class="fil3 str0" /><line
     style="fill:none;stroke:#1f1a17;stroke-width:0.89999998"
     id="line20"
     y2="2597.8201"
     x2="1418.83"
     y1="1147.36"
     x1="117.702"
     class="fil3 str0" /><polyline
     style="fill:none;stroke:#1f1a17;stroke-width:0.89999998"
     id="polyline22"
     points="1511.37,1888.56 182.95,2571.26 1611.15,2659.69 "
     class="fil3 str0" /><path
     style="fill:none;stroke:#1f1a17;stroke-width:0.89999998"
     inkscape:connector-curvature="0"
     id="path24"
     d="m 1709.75,1312.33 c -341.496,0 -618.438,-268.286 -618.438,-599.109 0,-330.822 260.158,-585.445 618.438,-599.108 358.28,-13.663 624.033,263.732 618.438,599.108 -5.5949,335.376 -276.943,599.109 -618.438,599.109 z M 423.39,550.593 c 121.029,0 228.017,66.352 292.609,167.824 l 537.36,601.704 547.215,612.738 c 100.709,69.5598 167.683,192.926 167.683,333.488 0,217.201 -159.92,393.345 -357.116,393.345 -13.7209,0 -27.2598,-0.8528 -40.585,-2.5134 l -1387.61,-85.9217 829.602,-426.341 -777.523,-866.757 c -47.8382,-32.7839 -88.1256,-77.6799 -117.327,-130.793 -32.6362,-59.3598 -51.4228,-128.982 -51.4228,-203.42799 0,-217.201 159.92,-393.345 357.116,-393.345 z"
     class="fil3 str0" /><polygon
     style="fill:#808080;fill-rule:nonzero"
     id="polygon26"
     points="239.027,3045.47 202.669,2999.6 202.669,2953.74 257.206,2953.74 257.206,2976.67 293.563,2976.67 293.563,2919.35 239.027,2919.35 202.669,2873.49 202.669,2770.3 239.027,2724.43 311.743,2724.43 348.1,2770.3 348.1,2816.16 293.563,2816.16 293.563,2793.23 257.206,2793.23 257.206,2850.55 311.743,2850.55 348.1,2896.41 348.1,2999.6 311.743,3045.47 "
     class="fil4" /><polygon
     style="fill:#808080;fill-rule:nonzero"
     points="377.186,2719.85 431.724,2719.85 431.724,3040.88 377.186,3040.88 "
     class="fil4"
     id="1" /><polygon
     style="fill:#808080;fill-rule:nonzero"
     points="515.347,2884.95 515.347,3013.36 460.809,3013.36 460.809,2692.33 515.347,2692.33 551.704,2820.74 551.704,2692.33 606.241,2692.33 606.241,3013.36 551.704,3013.36 "
     class="fil4"
     id="12" /><polygon
     style="fill:#808080;fill-rule:nonzero"
     points="689.864,2884.95 689.864,3013.36 635.327,3013.36 635.327,2692.33 689.864,2692.33 689.864,2820.67 726.221,2692.33 780.758,2692.33 735.312,2852.77 780.758,3013.36 726.221,3013.36 "
     class="fil4"
     id="123" /><polygon
     style="fill:#808080;fill-rule:nonzero"
     points="809.844,2733.61 864.381,2733.61 864.381,2985.85 937.097,2985.85 937.097,3054.64 809.844,3054.64 "
     class="fil4"
     id="1234" /><polygon
     style="fill:#808080;fill-rule:nonzero"
     points="955.276,2696.92 1082.53,2696.92 1082.53,2765.71 1009.81,2765.71 1009.81,2823.04 1082.53,2823.04 1082.53,2891.83 1009.81,2891.83 1009.81,2949.16 1082.53,2949.16 1082.53,3017.95 955.276,3017.95 "
     class="fil4"
     id="12345" /><polygon
     style="fill:#808080;fill-rule:nonzero"
     points="1147.97,3017.95 1111.61,2972.09 1111.61,2742.78 1147.97,2696.92 1220.69,2696.92 1257.04,2742.78 1257.04,2811.57 1202.51,2811.57 1202.51,2765.71 1166.15,2765.71 1166.15,2949.16 1202.51,2949.16 1202.51,2903.29 1257.04,2903.29 1257.04,2972.09 1220.69,3017.95 "
     class="fil4"
     id="123456" /><polygon
     style="fill:#808080;fill-rule:nonzero"
     points="1322.49,3040.88 1286.13,2995.02 1286.13,2719.85 1340.67,2719.85 1340.67,2972.09 1377.02,2972.09 1377.02,2719.85 1431.56,2719.85 1431.56,2995.02 1395.2,3040.88 "
     class="fil4"
     id="1234567" /><path
     style="fill:#808080;fill-rule:nonzero"
     inkscape:connector-curvature="0"
     d="m 1551.54,2855.14 0,-57.3272 -36.3567,0 0,57.3272 36.3567,0 z m 54.5374,194.911 -54.5374,0 0,-126.119 -36.3567,0 0,126.119 -54.5374,0 0,-321.031 109.074,0 36.3579,45.861 0,82.5508 -25.4504,32.1035 25.4504,32.1024 0,128.413 z"
     class="fil4"
     id="12345678" /><path
     style="fill:#808080;fill-rule:nonzero"
     inkscape:connector-curvature="0"
     d="m 1726.06,2949.16 0,-183.446 -36.3567,0 0,183.446 36.3567,0 z m 54.5374,22.9311 -36.3579,45.861 -109.074,0 0,-321.031 109.074,0 36.3579,45.8622 0,229.307 z"
     class="fil4"
     id="123456789" /><polygon
     style="fill:#808080;fill-rule:nonzero"
     points="1809.68,2953.74 1864.22,2953.74 1864.22,3022.53 1809.68,3022.53 "
     class="fil4"
     id="12345678910" /><path
     style="fill:#808080;fill-rule:nonzero"
     inkscape:connector-curvature="0"
     d="m 1970.14,2939.98 -13.089,-98.6787 -13.8165,98.6787 26.9055,0 z m 70.4126,114.654 -54.2941,0 -6.3638,-45.8622 -45.6886,0 -6.3626,45.8622 -54.5362,0 47.2642,-321.031 72.7169,0 47.2642,321.031 z"
     class="fil4"
     id="1234567891011" /><polygon
     style="fill:#808080;fill-rule:nonzero"
     points="2086,3045.47 2049.64,2999.6 2049.64,2953.74 2104.18,2953.74 2104.18,2976.67 2140.54,2976.67 2140.54,2919.35 2086,2919.35 2049.64,2873.49 2049.64,2770.3 2086,2724.43 2158.72,2724.43 2195.08,2770.3 2195.08,2816.16 2140.54,2816.16 2140.54,2793.23 2104.18,2793.23 2104.18,2850.55 2158.72,2850.55 2195.08,2896.41 2195.08,2999.6 2158.72,3045.47 "
     class="fil4"
     id="123456789101112" /><polygon
     style="fill:#808080;fill-rule:nonzero"
     points="2224.16,2719.85 2278.7,2719.85 2278.7,3040.88 2224.16,3040.88 "
     class="fil4"
     id="12345678910111213" /><path
     style="fill:#808080;fill-rule:nonzero"
     inkscape:connector-curvature="0"
     d="m 2384.62,2939.98 -13.089,-98.6787 -13.8165,98.6787 26.9055,0 z m 70.4126,114.654 -54.2941,0 -6.3638,-45.8622 -45.6886,0 -6.3626,45.8622 -54.5362,0 47.2642,-321.031 72.7169,0 47.2642,321.031 z"
     class="fil4"
     id="1234567891011121314" /></svg>